<?xml version="1.0" encoding="UTF-8"?><svg xmlns="http://www.w3.org/2000/svg" viewBox="0 0 986.62 632.81"><defs><style>.cls-1{fill:#fde8c0;}</style></defs><g id="logo"><path class="cls-1" d="M336.1,439.04c.78-5.6,1.35-10.95,2.3-16.22.95-5.31,1.79-10.72,3.54-15.79,3.26-9.45,7.61-18.82,16.63-23.8,8.07-4.45,14.31-10.36,19.51-17.56,5.79-8.02,12.27-16.18,8.7-27.07-3.07-9.36-.86-17.69,3.42-25.9,1.41-2.71,1.57-5.19-.09-8.01-9.24-15.72-23.37-13.04-34.66-3.83-.89.72-1.04,2.68-1.07,4.07-.18,7.94.34,15.93-.4,23.81-6.79,72-64.11,127.2-136.24,131.47-1.08.06-2.16.36-4.47.75,4.12,3.73,7.16,7.05,10.75,9.59,4.33,3.07,9.61,4.92,13.58,8.34,4.18,3.6,8.12,3.99,13.21,3,7.61-1.48,15.36-2.32,23.08-3.08,1.69-.16,3.52,1.18,4.93,1.7-2.77,5.25-4.84,9.89-7.56,14.13-2.43,3.8-5.02,7.83-8.48,10.6-10.34,8.28-22.63,11.63-35.7,11.49-15.29-.16-30.57-.87-45.85-1.45-8.91-.34-17.69-.14-26.11,3.34-4.45,1.84-7.39,4.84-8.8,9.52-2.47,8.21.07,15.74,3.04,23.15,1.13,2.81,1.12,5.11-.57,7.59-4.18,6.12-8.86,11.67-15.27,15.67-6.62,4.13-6.86,5.04-5.28,12.91,2.03,10.08-.23,14.51-9.68,18.98-1.53.72-3.08,1.39-4.62,2.09,1.57.78,3.01.95,4.44.91,3.57-.11,7.56.74,7.77,4.38.15,2.55-2.42,6.8-4.73,7.62-4.28,1.53-9.4,2-13.91,1.3-7.07-1.11-13.92-3.56-21.77-5.69,7.19,6.29,14.47,10.54,22.69,13.24,16.41,5.39,30.99,1.91,44.11-8.89,4.2-3.46,5.23-7.66,3.5-12.87-1.87-5.65-.31-9.26,5.54-10.48,8.17-1.71,16.67-3.75,24.84-3.12,19.47,1.5,37.82-1.58,54.74-10.99,7.34-4.08,13.55-10.22,20.09-15.65,1.02-.85,1.08-2.86,1.59-4.33-1.48.05-2.99-.09-4.42.18-6.83,1.28-13.58,3.81-21.48.88,1.68-1.55,2.75-2.98,4.17-3.77,13.35-7.4,26.73-14.65,41.63-18.76,19.33-5.33,36.81-14.21,51.5-28.23,10.36-9.89,18.32-21.56,24.5-34.2,3.74-7.66,5.98-16.35,7.25-24.83,1.42-9.44-6.03-16.71-15.69-16.81-4.47-.05-8.94.38-14.22.62ZM83.86,193.76c.55,9.4-4.1,32.7-9.02,40.37-3.58,5.59-7.45,11.95-12.85,15.19-8.26,4.96-14.93,11.01-20.28,18.68-5.3,7.6-11.47,15.28-8.11,25.5,2.13,6.46-.36,14.58-2.29,21.89s.05,14.71,5.41,19.64c.7.64,1.44,1.23,2.22,1.74,8.38,5.42,16.37,1.77,23.91-3.02,2.53-1.61,3.52-3.45,3.28-6.66-6.01-80.32,52.46-148.89,132.86-155.99,1.53-.14,3.04-.53,4.59-.8-.45-4.52-3.24-6.73-6.35-7.53-6.47-1.64-11.05-5.92-15.8-10.01-2.88-2.47-5.97-3.15-9.61-2.38-6.14,1.29-12.26,2.86-18.47,3.54-3.95.43-8.74,2.42-11.35-1.73-.16-5.5,2.17-7.99,4.72-13.02,1.01-1.98,5.01-6.97,6.65-8.36,7.16-6.06,15.05-11.01,24.39-12.89,15.14-3.04,30.38-2.13,45.7-1.3,11.77.64,23.7.59,35.42-.6,12.37-1.25,18.18-10.26,15.82-22.48-.82-4.24-2.66-8.26-3.64-12.48-.46-1.99-.79-4.81.25-6.19,3.86-5.11,7.51-11.02,12.71-14.31,7.66-4.83,10.43-9.91,7.95-18.81-1.85-6.63,1.08-10.99,7.41-14.2,2.64-1.34,5.41-2.42,8.77-3.91-3.42-.16-6.17.05-8.77-.47-5.83-1.17-7.11-5.46-3.19-9.93s9.37-4.8,14.55-3.78c7.87,1.55,15.57,3.92,23.34,5.94-4.28-3.51-8.8-6.96-13.76-9.53-19.35-10.01-39.28-6.79-53.38,6.44-3.06,2.87-3.96,6.13-2.93,10.17,2.22,8.72,1.06,10.57-7.8,13.13-3.03.88-6.16,1.41-9.31,1.51-7.89.26-15.8.3-23.7.25-14.39-.08-28.1,3.24-40.69,9.82-15.92,6.94-24.78,22.28-24.38,22.6,8.01-2.22,16-4.64,25.44-2.36-1.55,1.61-25.83,15.1-37.37,20.06-12.07,5.19-25.05,8.44-36.77,14.26-18.59,9.23-32.25,24.06-42.79,41.93-6.5,11.02-12.16,22.2-12.44,35.38-.15,7.06,4.86,13.35,11.83,14.48,5.7.92,11.66.2,17.81.2ZM223.71,410.52c-1.55-3.58-2.82-6.07-3.73-8.69-1.05-3.02-.47-5.77,2.63-7.28,5.96-2.9,7.01-7.92,6.8-13.92-.18-5.38.03-10.81.59-16.17.35-3.44,2.72-4.07,5.42-1.89,2.1,1.69,4.03,3.62,6.27,5.09,3.01,1.96,4.1,4.23,3.44,7.93-.97,5.46,1.54,9.91,5.08,11.6,1.36-3.9,2.89-7.84,4.06-11.88.45-1.56.38-3.41.04-5.02-.8-3.8-2.51-7.51-2.72-11.31-.2-3.63-.24-8.96,1.91-10.64,3.45-2.69,7.26,1.34,10.77,3.28,3.33,1.84,6.98,4.23,10.54,4.3,8.59.18,16.82.53,23.54,7.14-.74-5.9-1.82-11.45-6.54-15.1-5.42-4.18-11.38-7.58-15.36-13.54-1.46-2.19-4.97-2.91-6.85-4.95-1.44-1.56-2.69-4.29-2.33-6.18.27-1.43,3.09-2.99,5-3.34,2.4-.45,5.35-.43,7.49.6,9.32,4.45,17.51,2.39,25.24-3.51,4.06-3.1,8.5-3.46,13.24-2.16,1.7.47,3.39.98,5.34,1.55-4.79-9.14-10.87-12.12-20.15-11.06-3.41.39-7.02-.62-10.5-1.22-6.44-1.09-12.84-2.51-19.3-3.47-2.94-.44-6.01.07-9-.15-3.63-.26-7.24-1.38-7.56-5.61-.3-3.98,2.05-6.96,6.01-7.91,5.54-1.33,8.9-4.75,10.61-9.98,1.34-4.11,4.04-6.15,8.41-5.96.76.03,1.55-.35,2.47-.57-3.03-3.92-7.71-4.74-13.6-2.4-2.78,1.11-5.3,2.95-8.14,3.76-1.48.42-3.39-.67-5.1-1.08.38-1.58.27-3.61,1.23-4.66,2.81-3.1,5.83-6.11,9.18-8.62,4.42-3.31,5.77-7.34,4.7-12.6-1.77-8.73.11-16.12,8.3-20.94.52-.31,1.21-.33,1.83-.48-.31-.4-.62-.79-.93-1.19-2.96.3-5.91.63-8.87.9-6.15.57-10.52,3.52-12.29,9.56-1.26,4.3-3.81,5.76-8.26,5.72-5.76-.06-7.29,1.56-8.73,7.13-.97,3.78-1.75,7.62-2.95,11.32-.72,2.23-1.74,4.54-3.21,6.33-2.52,3.05-5.63,2.57-7.7-.86-2.27-3.75-.97-6.84,1.82-9.7,2.9-2.98,5.55-6.24,4.05-10.76-2.51-7.58-3.15-15.06-1.02-22.93,1.05-3.89-.52-7.54-6-9.65,3.84,7.2.04,11.4-4.3,15.19-5.66,4.94-7.98,11.07-7.57,18.43.09,1.65.04,3.31-.05,4.96-.26,4.62-4.06,8.44-9.01,9.12-3.97.54-7.62-1.91-8.84-6.65-1.19-4.63-1.8-9.42-2.6-14.14-.91-5.39-3.5-7.75-8.35-8.16-.34,3.9.4,8.34-1.25,11.55-2.71,5.29-2.58,9.5.83,14.15,1.18,1.61,1.91,3.79,2.19,5.8.69,4.95-2.64,8.44-7.61,8.38-5.45-.06-9.73-3.44-11.03-8.87-1.08-4.52-1.81-9.15-3.16-13.58-.61-2.01-1.97-4.2-3.64-5.39-3.65-2.6-7.53-5.11-11.68-6.7-3.54-1.35-7.59-1.35-11.41-1.95-.19.43-.38.87-.58,1.3,8.25,5.52,11.09,12.73,8.2,22.27-1.25,4.13,1.56,7.35,4.25,10.35,1.88,2.09,3.79,4.31,5.02,6.8,2.12,4.31.13,7.29-4.64,7.78-5.09.52-8.41-2.49-11.74-5.63-5.7-5.38-8.44-5.78-14.75-2.95,1.98,3.79,5.01,7.4,5.76,11.44,1.52,8.21,6.58,11.66,13.97,13.05,2.06.39,4.17.44,6.25.76,4.59.69,6.28,4.18,4.05,8.25-2.43,4.44-6.3,6.39-11.31,5.07-8.27-2.18-16.15-2.75-23.87,2.17-1.71,1.09-4.94.65-7.15-.06-7.29-2.34-14.45-1.09-18.84,3.71,3.12,1.18,6.98,1.61,9.35,3.72,6.15,5.46,12.9,5.44,20.16,3.87.88-.19,1.79-.26,2.69-.31,4.37-.24,10.58,2.56,9.85,4.51-1.45,3.89-5,5.31-8.95,5.65-2.7.23-5.41.4-8.12.6-.08.42-.17.83-.25,1.25,3.86,1.87,7.56,4.55,11.63,5.36,3.3.66,7.17-.54,10.57-1.61,3.77-1.19,7.19-3.48,10.96-4.71,3.48-1.13,6.91-.66,8.85,3.19,1.97,3.91,1.49,8.56-1.92,11.01-5.4,3.88-7.11,8.75-6.31,15.23.7,5.63-.82,7.34-6.28,9.32-1.41.51-2.83,1.02-4.28,1.4-5.44,1.45-7.54,5.67-9.11,9.71,6.22.57,12.19.69,17.98,1.75,8.43,1.55,9.43,1.19,12.45-7.16,1.32-3.66,2.73-7.33,4.49-10.79,2.01-3.94,7.16-5.84,11.26-4.44,4.61,1.57,3.84,5.14,3.56,8.93-.3,3.94-.21,8.12.78,11.91,1.13,4.28,1.4,8.18-.31,12.26-1.78,4.28-2.09,8.61-.14,12.95,3.88-4.55,8.14-8.64,11.19-13.49,1.6-2.54,1.2-6.41,1.47-9.7.23-2.78-.39-5.71.28-8.34.74-2.91,3.93-3.82,5.61-1.64,3.08,4.02,7.7,7.68,7.15,13.48-.96,10.02,5.5,15.04,13.09,20.81ZM148.21,447.28c-27.2-15.76-49.36-36.91-66.78-64.72-1.05,2.63-1.77,4.26-2.35,5.94-.58,1.68-.64,3.65-1.58,5.07-2.29,3.44-2.89,6.63-.8,10.47.94,1.73,1.01,4.09.95,6.15-.02.82-1.44,2.25-2.27,2.28-9.15.37-13.67-3.12-15.96-12.31-1.31-5.24-2.19-10.58-3.51-15.81-1.06-4.23-2.15-9.06-6.89-10.35-4.71-1.28-7.87,2.54-10.36,5.82-3.15,4.16-7.19,5.34-11.86,4.65-3.36-.49-5.58.7-8.07,2.74-2.45,2-5.58,3.17-8.67,4.84-.71.94-1.59,3.38-3.01,3.76-5.63,1.5-4.11-4.67-6.77-7.46,0,3.42-.75,6.42.2,8.72,1.02,2.47,3.28,5.22,5.65,6.1,2.15.79,5.74,0,7.7-1.45,5.09-3.75,6.53-3.75,9.24,1.96.7,1.47,1.07,3.1,1.49,4.69,1.76,6.49,5.55,11.27,11.82,13.84,1.47.6,3.21.53,4.7.75-.61-3.27-1.1-5.87-1.7-9.04,5.79,2.52,9.02,5.56,11.43,11.42,4.52,10.96,12.6,16.96,24.11,19.41,10.38,2.21,17.81-2.55,17.67-12.5,0-.38.36-.76.77-1.59,2.7,0,5.54-.12,8.37.02,6.66.33,11.65,2.52,13.65,9.9,1.81,6.66,7.56,9.81,14.28,9.52,1.85-.08,3.96.34,5.56,1.23,5.97,3.34,9.25,2.51,12.99-4.04ZM341.66,217.89c2.76.64,3.75.95,4.76,1.08,9.28,1.2,12.24,3.79,14.38,12.97,1.13,4.82,1.85,9.73,3.09,14.52,1.08,4.17,1.91,9.07,6.76,10.41,5.22,1.44,8.44-2.64,11.09-6.17,2.99-3.99,6.99-4.95,11.11-4.18,3.73.7,5.79-.82,8.38-2.82,2.49-1.92,5.61-3.01,7.95-4.21,1.44-1.57,2.57-3.99,4.08-4.24,5.49-.94,3.74,4.88,6.15,7.69.17-2.63.49-4.73.4-6.8-.17-3.64-1.35-6.82-5.21-8.15-3.7-1.27-7.03-1.01-9.76,2.27-2.52,3.02-5.04,2.39-6.81-.74-1.23-2.18-2.08-4.63-2.79-7.06-1.89-6.46-5.71-11.18-11.99-13.72-1.38-.56-2.99-.56-4.67-.84.67,3.21,1.22,5.83,1.97,9.42-7.21-3.2-10.27-8.33-12.77-14.02-5.13-11.67-14.97-16.38-26.88-17.37-8.29-.69-12.22,2.83-13.26,11.13-.31,2.51-1.32,3.45-3.71,3.34-1.2-.06-2.4.07-3.61.08-9.45.1-12.38-1.84-15.88-10.5-2.53-6.27-7.69-9.27-14.73-8.95-1.68.08-3.6-.5-5.09-1.34-5.78-3.29-8.98-2.55-12.55,3.46,27.34,15.83,49.43,37.23,66.45,64.5,1.8-4.54,3.52-8.15,4.63-11.94.66-2.24.65-4.79.41-7.16-.32-3.26-1.13-6.46-1.92-10.67ZM347.54,515.91c2.67,1.55,5.89,2.84,5.76,3.45-.51,2.48-1.73,4.99-3.29,7.02-1.32,1.72-3.58,2.69-5.27,4.16-3.69,3.21-9.07,5.01-9.34,11.18-.03.59-1.26,1.17-2,1.67-2.85,1.94-5.69,3.9-8.58,5.76-10.13,6.51-19.4,13.95-22.85,26.09-2.28,8.04-6.8,13.82-14.01,17.76-1.84,1-3.62,2.15-5.27,3.43-3.25,2.52-6.39,5.17-9.58,7.77,3.6-.68,6.44-2.39,9.49-3.55,14.45-5.49,27.26-12.89,35.21-27,2.22-3.94,5.83-7.17,9.11-10.42.77-.76,3.89-.73,4.1-.26,2.56,5.83,6.38,3.09,9.68,1.4,7.21-3.69,11.08-10.26,14.25-17.39.58-1.31,1.73-2.93,2.96-3.3,7.6-2.26,13.01-11.66,12.92-18.31-.09-6.84-3.2-10.52-9.99-10.48-4.16.03-8.32.61-13.31,1.01ZM148.75,28.04c-.27-.3-.55-.6-.82-.91-3.76,1.81-7.43,3.86-11.31,5.37-14.31,5.6-26.7,13.41-34.49,27.33-2,3.57-5.18,6.57-8.2,9.43-.9.85-4.23.93-4.51.38-2.65-5.19-6.35-3.05-9.56-1.37-7.13,3.74-11.12,10.23-14.37,17.32-.67,1.47-1.88,3.25-3.25,3.76-8.66,3.21-14.62,13.29-12.11,21.99.63,2.2,3,4.6,5.16,5.52,5.78,2.45,11.67.87,16.94-.56-1.67-.91-4.91-1.77-5.02-2.92-.19-2.04,1.32-4.37,2.52-6.34.74-1.22,2.2-2.01,3.38-2.94,3.17-2.51,6.44-4.91,9.49-7.56,1.05-.91,1.55-2.46,2.31-3.7.77-1.25,1.31-2.83,2.41-3.67,2.72-2.1,5.67-3.91,8.58-5.74,10.95-6.9,20.09-15.35,23.53-28.37,1.61-6.09,5.38-10.13,10.4-13.53,6.42-4.34,12.63-8.99,18.93-13.5ZM26.38,435.49c2.54,8.83,13.51,7.83,14.62,9.29s-.05,4.29,1.03,6.37,6.67,3.51,10.26,4.25c4.33.9,6.86-2.17,7.55-7.49-1.44-.19-3.12.03-4.24-.65-3.51-2.13-6.72-4.74-10.23-6.86-1.59-.96-3.79-2.05-5.38-1.66-4.98,1.2-9.41.79-13.61-3.24ZM393.62,196.03c-2.91-9.02-10.11-8.41-15.94-10,2.24-5.63,1.61-6.68-3.73-7.49-.96-.15-2.25-.39-2.71-1.05-2.18-3.18-4.93-2.49-7.54-1.12-2.7,1.42-4.07,3.77-3.42,6.62,1.45.19,2.79,0,3.67.54,3.23,2,6.21,4.41,9.49,6.33,1.98,1.16,4.51,2.65,6.48,2.28,4.84-.88,9.14-.75,13.71,3.89Z"/></g><g id="typo"><polygon class="cls-1" points="463.02 177.75 507.03 175.07 507.03 195.47 492.5 195.47 491.08 249.77 476.75 250.78 477.36 194.86 463.02 195.47 463.02 177.75"/><path class="cls-1" d="M533.68,253.61l14.54-77.53,19.18-3.03,12.52,78.74-17.16.4-.81-26.65-8.48.2-6.06,27.86h-13.73ZM557.51,192.03l-4.44,18.37h8.88l-4.44-18.37Z"/><polygon class="cls-1" points="617.07 177.9 633.42 174.27 630.19 232.61 656.03 232.61 656.03 250.78 616.06 247.96 617.07 177.9"/><polygon class="cls-1" points="691.77 175.88 737.19 174.27 738.4 190.01 706.71 192.03 707.31 205.76 725.28 205.76 726.69 219.09 705.7 219.09 706.71 233.42 736.59 233.42 737.19 252.2 693.38 249.57 691.77 175.88"/><polygon class="cls-1" points="775.04 258.05 775.04 178.3 789.89 178.3 807.85 222.92 809.87 169.73 824.41 169.73 824.41 250.78 806.85 250.78 788.27 205.96 789.48 256.24 775.04 258.05"/><polygon class="cls-1" points="874.68 250.78 875.69 195.06 861.15 195.06 861.15 177.3 905.17 174.47 905.17 195.26 890.83 194.86 888.81 249.57 874.68 250.78"/><polygon class="cls-1" points="985.52 187.59 985.52 173.66 941.91 176.89 941.91 212.63 972.2 228.17 972.2 237.46 941.91 237.46 941.91 252.2 986.62 252.2 986.62 215.65 954.23 200.92 954.63 188.6 985.52 187.59"/><polygon class="cls-1" points="920.55 167.39 932.87 167.39 924.19 192.83 917.32 190.61 920.55 167.39"/><path class="cls-1" d="M463.02,275.89h224.66v21.65h-101.66v19.25l22.86-4.58.6,30.89-22.86-3.64,10.21,136.38h-71.56l-.6-38.66,40.3,8.94,3.15-129.32s-25.75-1.78-53.07-12.03c-27.32-10.25-52.03-28.87-52.03-28.87Z"/><path class="cls-1" d="M688.66,316.98v114.9h-63.99v-114.9h63.99ZM647.09,339.17v69.82h19.15v-69.82h-19.15Z"/><polygon class="cls-1" points="624.67 453.33 688.66 447.53 688.66 475.84 624.67 475.84 624.67 453.33"/><path class="cls-1" d="M763.85,279.35v49.07l-11.77,7.76,11.77,14.19v125.46h-21.95v-121.72l-15.88,3.42v118.3h-22.19l-.23-199.95,60.25,3.46ZM725.79,300.43v28.23h15.88v-30.59l-15.88,2.36Z"/><polygon class="cls-1" points="778.51 318.03 779.27 475.84 846.99 475.84 846.99 384.47 813.01 381.41 813.01 403.38 824.1 400.12 827.93 454.53 801.45 458.92 801.45 346 824.1 342.91 824.1 374.08 846.99 374.08 846.46 313.24 778.51 318.03"/><polygon class="cls-1" points="846.99 295.63 846.99 275.89 779.03 275.89 779.03 304.14 846.99 295.63"/><polygon class="cls-1" points="861.7 275.89 861.7 475.84 922.42 475.84 922.42 444.72 883.89 453.32 883.89 339.4 907.24 344.87 907.24 313.24 883.89 316.98 883.89 298.07 985.47 302.67 985.47 275.89 861.7 275.89"/></g></svg>