<?xml version="1.0" encoding="UTF-8"?><svg id="typo" xmlns="http://www.w3.org/2000/svg" viewBox="0 0 523.6 308.45"><defs><style>.cls-1{fill:#fde8c0;}</style></defs><polygon class="cls-1" points="0 10.36 44.01 7.68 44.01 28.07 29.48 28.07 28.06 82.38 13.73 83.39 14.33 27.47 0 28.07 0 10.36"/><path class="cls-1" d="M70.66,86.22l14.54-77.53,19.18-3.03,12.52,78.74-17.16.4-.81-26.65-8.48.2-6.06,27.86h-13.73ZM94.49,24.64l-4.44,18.37h8.88l-4.44-18.37Z"/><polygon class="cls-1" points="154.04 10.51 170.4 6.88 167.17 65.22 193.01 65.22 193.01 83.39 153.03 80.57 154.04 10.51"/><polygon class="cls-1" points="228.74 8.49 274.17 6.88 275.38 22.62 243.68 24.64 244.29 38.37 262.26 38.37 263.67 51.7 242.68 51.7 243.68 66.03 273.56 66.03 274.17 84.81 230.36 82.18 228.74 8.49"/><polygon class="cls-1" points="312.01 90.66 312.01 10.91 326.86 10.91 344.83 55.53 346.85 2.34 361.39 2.34 361.39 83.39 343.82 83.39 325.25 38.57 326.46 88.84 312.01 90.66"/><polygon class="cls-1" points="411.66 83.39 412.67 27.67 398.13 27.67 398.13 9.9 442.15 7.08 442.15 27.87 427.81 27.47 425.79 82.18 411.66 83.39"/><polygon class="cls-1" points="522.5 20.2 522.5 6.27 478.89 9.5 478.89 45.24 509.17 60.78 509.17 70.07 478.89 70.07 478.89 84.81 523.6 84.81 523.6 48.26 491.21 33.53 491.61 21.21 522.5 20.2"/><polygon class="cls-1" points="457.53 0 469.85 0 461.17 25.44 454.3 23.22 457.53 0"/><path class="cls-1" d="M0,108.5h224.66v21.65h-101.66v19.25l22.86-4.58.6,30.89-22.86-3.64,10.21,136.38H62.26l-.6-38.66,40.3,8.94,3.15-129.32s-25.75-1.78-53.07-12.03C24.71,127.13,0,108.5,0,108.5Z"/><path class="cls-1" d="M225.64,149.59v114.9h-63.99v-114.9h63.99ZM184.07,171.78v69.82h19.15v-69.82h-19.15Z"/><polygon class="cls-1" points="161.65 285.94 225.64 280.13 225.64 308.45 161.65 308.45 161.65 285.94"/><path class="cls-1" d="M300.83,111.96v49.07l-11.77,7.76,11.77,14.19v125.46h-21.95v-121.72l-15.88,3.42v118.3h-22.19l-.23-199.95,60.25,3.46ZM262.77,133.04v28.23h15.88v-30.59l-15.88,2.36Z"/><polygon class="cls-1" points="315.49 150.64 316.25 308.45 383.97 308.45 383.97 217.08 349.99 214.02 349.99 235.99 361.08 232.73 364.91 287.14 338.43 291.53 338.43 178.61 361.08 175.51 361.08 206.69 383.97 206.69 383.44 145.85 315.49 150.64"/><polygon class="cls-1" points="383.97 128.24 383.97 108.5 316.01 108.5 316.01 136.75 383.97 128.24"/><polygon class="cls-1" points="398.68 108.5 398.68 308.45 459.4 308.45 459.4 277.32 420.87 285.93 420.87 172.01 444.22 177.48 444.22 145.85 420.87 149.59 420.87 130.68 522.45 135.28 522.45 108.5 398.68 108.5"/></svg>